<svg xmlns="http://www.w3.org/2000/svg" version="1.1" xmlns:xlink="http://www.w3.org/1999/xlink" xmlns:svgjs="http://svgjs.dev/svgjs" width="2000" height="1500" viewBox="0 0 2000 1500"><rect width="2000" height="1500" fill="#000000"></rect><g transform="matrix(0.4444444444444444,0,0,0.4444444444444444,555.5555555555557,250)"><svg viewBox="0 0 320 360" data-background-color="#000000" preserveAspectRatio="xMidYMid meet" height="2250" width="2000" xmlns="http://www.w3.org/2000/svg" xmlns:xlink="http://www.w3.org/1999/xlink"><g id="tight-bounds" transform="matrix(1,0,0,1,0,0)"><svg viewBox="0 0 320 360" height="360" width="320"><rect width="320" height="360" fill="url(#aa40f0b1-9477-4eeb-b331-4a71cf231900)" mask="url(#eaf5a29a-2f5a-466c-867b-e0643908e00e)" data-fill-palette-color="tertiary"></rect><g><svg></svg></g><g><svg viewBox="0 0 320 360" height="360" width="320"><g><path d="M320 187.111c0-45.764-20.238-86.866-52.203-114.908-28.043-31.964-69.145-52.203-114.908-52.203-84.302 0-152.889 68.587-152.889 152.889 0 45.753 20.231 86.848 52.185 114.891 28.043 31.975 69.152 52.22 114.926 52.22 0.299 0 0.59-0.021 0.889-0.021 0.299 0 0.59 0.021 0.889 0.021 83.456 0 151.111-67.655 151.111-151.111 0-0.299-0.021-0.59-0.021-0.889 0-0.299 0.021-0.59 0.021-0.889zM59.833 263.097c-15.093-21.255-24.071-47.143-24.256-75.097 0.48-72.928 59.492-131.943 132.423-132.423 27.954 0.185 53.845 9.163 75.097 24.256 24.366 23.627 39.57 56.64 39.57 93.056 0 71.559-58.219 129.778-129.778 129.778-36.416 0-69.429-15.204-93.056-39.57zM3.556 172.889c0-82.343 66.99-149.333 149.333-149.333 35.051 0 67.292 12.167 92.8 32.462-22.98-13.824-49.863-21.796-78.578-21.796-84.302 0-152.889 68.587-152.889 152.889 0 28.708 7.968 55.584 21.785 78.56-20.288-25.5-32.452-57.739-32.451-92.782zM167.111 318.667c-35.84 0-68.363-14.418-92.107-37.743 21.952 15.89 48.864 25.298 77.885 25.298 73.522 0 133.333-59.812 133.333-133.333 0-29.02-9.408-55.932-25.298-77.885 23.324 23.744 37.742 56.267 37.743 92.107 0 72.54-59.015 131.556-131.556 131.556z" fill="url(#aa40f0b1-9477-4eeb-b331-4a71cf231900)" fill-rule="nonzero" stroke="none" stroke-width="1" stroke-linecap="butt" stroke-linejoin="miter" stroke-miterlimit="10" stroke-dasharray="" stroke-dashoffset="0" font-family="none" font-weight="none" font-size="none" text-anchor="none" style="mix-blend-mode: normal" data-fill-palette-color="tertiary"></path></g><g transform="matrix(1,0,0,1,110.87546699875467,99)"><svg viewBox="0 0 98.24906600249065 162" height="162" width="98.24906600249065"><g><svg viewBox="0 0 98.24906600249065 162" height="162" width="98.24906600249065"><g><svg viewBox="0 0 98.24906600249065 162" height="162" width="98.24906600249065"><g><svg viewBox="0 0 98.24906600249065 162" height="162" width="98.24906600249065"><g id="textblocktransform"><svg viewBox="0 0 98.24906600249065 162" height="162" width="98.24906600249065" id="textblock"><g><svg viewBox="0 0 98.24906600249065 162" height="162" width="98.24906600249065"><g transform="matrix(1,0,0,1,0,0)"><svg width="98.24906600249065" viewBox="1.51 -37.16 23.779999999999998 39.209999999999994" height="162" data-palette-color="url(#95227009-86c0-4723-907e-f525dd04b6df)"></svg></g></svg></g></svg></g></svg></g></svg></g></svg></g></svg></g></svg></g><defs></defs><mask id="b800bb03-5959-4fe7-a4b6-a6c48346ae02"><g id="SvgjsG1003"><svg viewBox="0 0 320 360" height="360" width="320"><g><svg></svg></g><g><svg viewBox="0 0 320 360" height="360" width="320"><g><path d="M320 187.111c0-45.764-20.238-86.866-52.203-114.908-28.043-31.964-69.145-52.203-114.908-52.203-84.302 0-152.889 68.587-152.889 152.889 0 45.753 20.231 86.848 52.185 114.891 28.043 31.975 69.152 52.22 114.926 52.22 0.299 0 0.59-0.021 0.889-0.021 0.299 0 0.59 0.021 0.889 0.021 83.456 0 151.111-67.655 151.111-151.111 0-0.299-0.021-0.59-0.021-0.889 0-0.299 0.021-0.59 0.021-0.889zM59.833 263.097c-15.093-21.255-24.071-47.143-24.256-75.097 0.48-72.928 59.492-131.943 132.423-132.423 27.954 0.185 53.845 9.163 75.097 24.256 24.366 23.627 39.57 56.64 39.57 93.056 0 71.559-58.219 129.778-129.778 129.778-36.416 0-69.429-15.204-93.056-39.57zM3.556 172.889c0-82.343 66.99-149.333 149.333-149.333 35.051 0 67.292 12.167 92.8 32.462-22.98-13.824-49.863-21.796-78.578-21.796-84.302 0-152.889 68.587-152.889 152.889 0 28.708 7.968 55.584 21.785 78.56-20.288-25.5-32.452-57.739-32.451-92.782zM167.111 318.667c-35.84 0-68.363-14.418-92.107-37.743 21.952 15.89 48.864 25.298 77.885 25.298 73.522 0 133.333-59.812 133.333-133.333 0-29.02-9.408-55.932-25.298-77.885 23.324 23.744 37.742 56.267 37.743 92.107 0 72.54-59.015 131.556-131.556 131.556z" fill="black" fill-rule="nonzero" stroke="none" stroke-width="1" stroke-linecap="butt" stroke-linejoin="miter" stroke-miterlimit="10" stroke-dasharray="" stroke-dashoffset="0" font-family="none" font-weight="none" font-size="none" text-anchor="none" style="mix-blend-mode: normal"></path></g><g transform="matrix(1,0,0,1,110.87546699875467,99)"><svg viewBox="0 0 98.24906600249065 162" height="162" width="98.24906600249065"><g><svg viewBox="0 0 98.24906600249065 162" height="162" width="98.24906600249065"><g><svg viewBox="0 0 98.24906600249065 162" height="162" width="98.24906600249065"><g><svg viewBox="0 0 98.24906600249065 162" height="162" width="98.24906600249065"><g id="SvgjsG1002"><svg viewBox="0 0 98.24906600249065 162" height="162" width="98.24906600249065" id="SvgjsSvg1001"><g><svg viewBox="0 0 98.24906600249065 162" height="162" width="98.24906600249065"><g transform="matrix(1,0,0,1,0,0)"><svg width="98.24906600249065" viewBox="1.51 -37.16 23.779999999999998 39.209999999999994" height="162" data-palette-color="url(#95227009-86c0-4723-907e-f525dd04b6df)"><path d="M25.29-25.68L25.29-25.68Q25.29-22.31 23.73-19.63 22.17-16.94 19.58-14.89L19.58-14.89Q20.36-13.72 21.19-12.16 22.02-10.6 22.68-8.86 23.34-7.13 23.75-5.4 24.17-3.66 24.17-2.2L24.17-2.2Q24.17-0.63 23.41 0.61 22.66 1.86 20.85 1.86L20.85 1.86Q19.34 1.86 18.24 0.39 17.14-1.07 16.28-3.1 15.43-5.13 14.72-7.23 14.01-9.33 13.38-10.6L13.38-10.6Q12.5-10.3 11.67-9.94 10.84-9.57 9.96-9.23L9.96-9.23Q9.91-8.15 9.79-6.27 9.67-4.39 9.25-2.54 8.84-0.68 8.01 0.68 7.18 2.05 5.71 2.05L5.71 2.05Q4.1 2.05 3.22 0.73 2.34-0.59 1.98-2.39 1.61-4.2 1.56-6.08 1.51-7.96 1.51-9.03L1.51-9.03Q1.51-11.33 1.61-13.55 1.71-15.77 1.71-18.07L1.71-18.07Q1.71-20.17 1.64-22.27 1.56-24.37 1.56-26.51L1.56-26.51Q1.56-27 1.56-27.76 1.56-28.52 1.64-29.32 1.71-30.13 1.81-30.86 1.9-31.59 2.15-32.03L2.15-32.03Q2.64-33.06 4.37-33.98 6.1-34.91 8.18-35.62 10.25-36.33 12.23-36.74 14.21-37.16 15.19-37.16L15.19-37.16Q17.68-37.16 19.58-36.23 21.48-35.3 22.75-33.72 24.02-32.13 24.66-30.05 25.29-27.98 25.29-25.68ZM16.26-25L16.26-25Q16.26-26.27 15.67-26.93 15.09-27.59 13.77-27.59L13.77-27.59Q12.79-27.59 11.79-27.25 10.79-26.9 9.96-26.46L9.96-26.46Q10.16-22.61 10.11-18.8L10.11-18.8Q11.13-19.14 12.21-19.68 13.28-20.21 14.18-21 15.09-21.78 15.67-22.75 16.26-23.73 16.26-25Z" opacity="1" transform="matrix(1,0,0,1,0,0)" fill="white" class="wordmark-text-0" id="SvgjsPath1000"></path></svg></g></svg></g></svg></g></svg></g></svg></g></svg></g></svg></g></svg></g><defs><mask></mask></defs></svg><rect width="320" height="360" fill="black" stroke="none" visibility="hidden"></rect></g></mask><linearGradient x1="0" x2="1" y1="0.548" y2="0.55" id="95227009-86c0-4723-907e-f525dd04b6df"><stop stop-color="#ff6cab" offset="0"></stop><stop stop-color="#7366ff" offset="1"></stop></linearGradient><rect width="320" height="360" fill="url(#95227009-86c0-4723-907e-f525dd04b6df)" mask="url(#b800bb03-5959-4fe7-a4b6-a6c48346ae02)" data-fill-palette-color="primary"></rect><mask id="eaf5a29a-2f5a-466c-867b-e0643908e00e"><g id="SvgjsG1026"><svg viewBox="0 0 320 360" height="360" width="320"><g><svg></svg></g><g><svg viewBox="0 0 320 360" height="360" width="320"><g><path d="M320 187.111c0-45.764-20.238-86.866-52.203-114.908-28.043-31.964-69.145-52.203-114.908-52.203-84.302 0-152.889 68.587-152.889 152.889 0 45.753 20.231 86.848 52.185 114.891 28.043 31.975 69.152 52.22 114.926 52.22 0.299 0 0.59-0.021 0.889-0.021 0.299 0 0.59 0.021 0.889 0.021 83.456 0 151.111-67.655 151.111-151.111 0-0.299-0.021-0.59-0.021-0.889 0-0.299 0.021-0.59 0.021-0.889zM59.833 263.097c-15.093-21.255-24.071-47.143-24.256-75.097 0.48-72.928 59.492-131.943 132.423-132.423 27.954 0.185 53.845 9.163 75.097 24.256 24.366 23.627 39.57 56.64 39.57 93.056 0 71.559-58.219 129.778-129.778 129.778-36.416 0-69.429-15.204-93.056-39.57zM3.556 172.889c0-82.343 66.99-149.333 149.333-149.333 35.051 0 67.292 12.167 92.8 32.462-22.98-13.824-49.863-21.796-78.578-21.796-84.302 0-152.889 68.587-152.889 152.889 0 28.708 7.968 55.584 21.785 78.56-20.288-25.5-32.452-57.739-32.451-92.782zM167.111 318.667c-35.84 0-68.363-14.418-92.107-37.743 21.952 15.89 48.864 25.298 77.885 25.298 73.522 0 133.333-59.812 133.333-133.333 0-29.02-9.408-55.932-25.298-77.885 23.324 23.744 37.742 56.267 37.743 92.107 0 72.54-59.015 131.556-131.556 131.556z" fill="white" fill-rule="nonzero" stroke="none" stroke-width="1" stroke-linecap="butt" stroke-linejoin="miter" stroke-miterlimit="10" stroke-dasharray="" stroke-dashoffset="0" font-family="none" font-weight="none" font-size="none" text-anchor="none" style="mix-blend-mode: normal"></path></g><g transform="matrix(1,0,0,1,110.87546699875467,99)"><svg viewBox="0 0 98.24906600249065 162" height="162" width="98.24906600249065"><g><svg viewBox="0 0 98.24906600249065 162" height="162" width="98.24906600249065"><g><svg viewBox="0 0 98.24906600249065 162" height="162" width="98.24906600249065"><g><svg viewBox="0 0 98.24906600249065 162" height="162" width="98.24906600249065"><g id="SvgjsG1025"><svg viewBox="0 0 98.24906600249065 162" height="162" width="98.24906600249065" id="SvgjsSvg1024"><g><svg viewBox="0 0 98.24906600249065 162" height="162" width="98.24906600249065"><g transform="matrix(1,0,0,1,0,0)"><svg width="98.24906600249065" viewBox="1.51 -37.16 23.779999999999998 39.209999999999994" height="162" data-palette-color="url(#95227009-86c0-4723-907e-f525dd04b6df)"></svg></g></svg></g></svg></g></svg></g></svg></g></svg></g></svg></g></svg></g><defs><mask></mask></defs><mask><g id="SvgjsG1023"><svg viewBox="0 0 320 360" height="360" width="320"><g><svg></svg></g><g><svg viewBox="0 0 320 360" height="360" width="320"><g><path d="M320 187.111c0-45.764-20.238-86.866-52.203-114.908-28.043-31.964-69.145-52.203-114.908-52.203-84.302 0-152.889 68.587-152.889 152.889 0 45.753 20.231 86.848 52.185 114.891 28.043 31.975 69.152 52.22 114.926 52.22 0.299 0 0.59-0.021 0.889-0.021 0.299 0 0.59 0.021 0.889 0.021 83.456 0 151.111-67.655 151.111-151.111 0-0.299-0.021-0.59-0.021-0.889 0-0.299 0.021-0.59 0.021-0.889zM59.833 263.097c-15.093-21.255-24.071-47.143-24.256-75.097 0.48-72.928 59.492-131.943 132.423-132.423 27.954 0.185 53.845 9.163 75.097 24.256 24.366 23.627 39.57 56.64 39.57 93.056 0 71.559-58.219 129.778-129.778 129.778-36.416 0-69.429-15.204-93.056-39.57zM3.556 172.889c0-82.343 66.99-149.333 149.333-149.333 35.051 0 67.292 12.167 92.8 32.462-22.98-13.824-49.863-21.796-78.578-21.796-84.302 0-152.889 68.587-152.889 152.889 0 28.708 7.968 55.584 21.785 78.56-20.288-25.5-32.452-57.739-32.451-92.782zM167.111 318.667c-35.84 0-68.363-14.418-92.107-37.743 21.952 15.89 48.864 25.298 77.885 25.298 73.522 0 133.333-59.812 133.333-133.333 0-29.02-9.408-55.932-25.298-77.885 23.324 23.744 37.742 56.267 37.743 92.107 0 72.54-59.015 131.556-131.556 131.556z" fill="black" fill-rule="nonzero" stroke="none" stroke-width="1" stroke-linecap="butt" stroke-linejoin="miter" stroke-miterlimit="10" stroke-dasharray="" stroke-dashoffset="0" font-family="none" font-weight="none" font-size="none" text-anchor="none" style="mix-blend-mode: normal"></path></g><g transform="matrix(1,0,0,1,110.87546699875467,99)"><svg viewBox="0 0 98.24906600249065 162" height="162" width="98.24906600249065"><g><svg viewBox="0 0 98.24906600249065 162" height="162" width="98.24906600249065"><g><svg viewBox="0 0 98.24906600249065 162" height="162" width="98.24906600249065"><g><svg viewBox="0 0 98.24906600249065 162" height="162" width="98.24906600249065"><g id="SvgjsG1022"><svg viewBox="0 0 98.24906600249065 162" height="162" width="98.24906600249065" id="SvgjsSvg1021"><g><svg viewBox="0 0 98.24906600249065 162" height="162" width="98.24906600249065"><g transform="matrix(1,0,0,1,0,0)"><svg width="98.24906600249065" viewBox="1.51 -37.16 23.779999999999998 39.209999999999994" height="162" data-palette-color="url(#95227009-86c0-4723-907e-f525dd04b6df)"><path d="M25.29-25.68L25.29-25.68Q25.29-22.31 23.73-19.63 22.17-16.94 19.58-14.89L19.58-14.89Q20.36-13.72 21.19-12.16 22.02-10.6 22.68-8.86 23.34-7.13 23.75-5.4 24.17-3.66 24.17-2.2L24.17-2.2Q24.17-0.63 23.41 0.61 22.66 1.86 20.85 1.86L20.85 1.86Q19.34 1.86 18.24 0.39 17.14-1.07 16.28-3.1 15.43-5.13 14.72-7.23 14.01-9.33 13.38-10.6L13.38-10.6Q12.5-10.3 11.67-9.94 10.84-9.57 9.96-9.23L9.96-9.23Q9.91-8.15 9.79-6.27 9.67-4.39 9.25-2.54 8.84-0.68 8.01 0.68 7.18 2.05 5.71 2.05L5.71 2.05Q4.1 2.05 3.22 0.73 2.34-0.59 1.98-2.39 1.61-4.2 1.56-6.08 1.51-7.96 1.51-9.03L1.51-9.03Q1.51-11.33 1.61-13.55 1.71-15.77 1.71-18.07L1.71-18.07Q1.71-20.17 1.64-22.27 1.56-24.37 1.56-26.51L1.56-26.51Q1.56-27 1.56-27.76 1.56-28.52 1.64-29.32 1.71-30.13 1.81-30.86 1.9-31.59 2.15-32.03L2.15-32.03Q2.64-33.06 4.37-33.98 6.1-34.91 8.18-35.62 10.25-36.33 12.23-36.74 14.21-37.16 15.19-37.16L15.19-37.16Q17.68-37.16 19.58-36.23 21.48-35.3 22.75-33.72 24.02-32.13 24.66-30.05 25.29-27.98 25.29-25.68ZM16.26-25L16.26-25Q16.26-26.27 15.67-26.93 15.09-27.59 13.77-27.59L13.77-27.59Q12.79-27.59 11.79-27.25 10.79-26.9 9.96-26.46L9.96-26.46Q10.16-22.61 10.11-18.8L10.11-18.8Q11.13-19.14 12.21-19.68 13.28-20.21 14.18-21 15.09-21.78 15.67-22.75 16.26-23.73 16.26-25Z" opacity="1" transform="matrix(1,0,0,1,0,0)" fill="black" class="wordmark-text-0" id="SvgjsPath1020"></path></svg></g></svg></g></svg></g></svg></g></svg></g></svg></g></svg></g></svg></g><defs><mask></mask></defs></svg><rect width="320" height="360" fill="black" stroke="none" visibility="hidden"></rect></g></mask></svg><rect width="320" height="360" fill="black" stroke="none" visibility="hidden"></rect></g></mask><linearGradient x1="0" x2="1" y1="0.548" y2="0.55" id="aa40f0b1-9477-4eeb-b331-4a71cf231900"><stop stop-color="#ff6cab" offset="0"></stop><stop stop-color="#7366ff" offset="1"></stop></linearGradient></svg><rect width="320" height="360" fill="none" stroke="none" visibility="hidden"></rect></g></svg></g></svg>